<?xml version="1.0" standalone="no"?>
<!DOCTYPE svg PUBLIC "-//W3C//DTD SVG 20010904//EN"
 "http://www.w3.org/TR/2001/REC-SVG-20010904/DTD/svg10.dtd">
<svg version="1.0" xmlns="http://www.w3.org/2000/svg"
 width="16.000000pt" height="16.000000pt" viewBox="0 0 16.000000 16.000000"
 preserveAspectRatio="xMidYMid meet">
<metadata>
Created by potrace 1.11, written by Peter Selinger 2001-2013
</metadata>
<g transform="translate(0.000000,16.000000) scale(0.006154,-0.006154)"
fill="#000000" stroke="none">
<path d="M725 2385 c-130 -21 -228 -59 -318 -122 -28 -21 -54 -40 -57 -44 -3
-3 -19 -13 -36 -22 -62 -32 -182 -182 -233 -292 -35 -74 -44 -103 -67 -200
-12 -53 -16 -297 -5 -308 6 -6 11 -22 11 -36 0 -96 115 -311 230 -431 41 -43
163 -125 235 -159 28 -13 61 -28 73 -34 21 -10 23 -16 18 -51 -12 -71 -69
-129 -141 -141 -43 -8 -85 -30 -85 -45 0 -4 8 -16 17 -26 15 -15 32 -16 138
-11 67 3 134 11 150 18 110 45 144 67 212 136 39 40 79 73 89 73 9 0 35 5 58
11 22 6 59 15 81 21 52 13 67 19 147 58 81 39 107 64 92 88 -18 28 -45 25
-124 -16 -41 -21 -93 -43 -115 -49 -97 -27 -125 -33 -163 -33 -37 0 -44 -4
-71 -44 -17 -24 -50 -61 -73 -81 -43 -37 -165 -101 -175 -92 -2 3 4 20 13 39
10 18 24 53 31 78 26 95 13 121 -74 150 -67 22 -133 53 -133 62 0 5 -6 8 -12
8 -29 0 -177 141 -227 215 -59 86 -87 151 -120 281 -14 53 -14 255 0 308 17
67 30 110 39 131 4 11 14 35 22 53 7 17 16 32 20 32 5 0 8 6 8 13 0 20 98 144
133 169 18 12 43 33 57 45 14 13 33 26 43 29 9 3 17 10 17 15 0 5 5 9 11 9 6
0 23 8 37 19 44 30 212 89 290 101 81 13 215 1 287 -27 22 -9 49 -19 60 -23
47 -18 123 -56 162 -82 48 -32 71 -35 88 -11 19 26 10 38 -74 96 -105 73 -196
107 -344 127 -92 12 -116 11 -222 -5z"/>
<path d="M1650 2138 c-238 -33 -423 -136 -573 -318 -20 -25 -37 -50 -37 -57 0
-6 -4 -13 -8 -15 -12 -5 -99 -188 -110 -233 -36 -141 -41 -233 -17 -355 20
-109 29 -140 57 -193 51 -101 49 -98 82 -95 40 4 44 27 16 87 -107 223 -106
453 3 691 64 139 198 272 342 339 192 90 357 105 555 49 159 -44 341 -171 426
-298 40 -60 84 -156 102 -225 6 -22 15 -59 21 -81 14 -54 14 -221 -1 -281 -35
-147 -89 -267 -149 -334 -21 -24 -39 -47 -39 -51 0 -4 -37 -35 -81 -68 -74
-55 -173 -109 -256 -140 -17 -6 -34 -21 -37 -33 -9 -35 4 -109 30 -165 28 -61
28 -62 11 -62 -42 0 -178 103 -237 178 -38 49 -43 52 -85 52 -39 0 -112 15
-170 35 -38 13 -150 70 -163 83 -8 7 -27 19 -43 27 -26 14 -30 14 -49 -5 -26
-26 -18 -42 43 -82 108 -70 207 -109 329 -129 53 -9 80 -18 83 -28 5 -15 98
-115 126 -136 15 -11 86 -45 134 -65 35 -14 230 -26 269 -16 20 5 26 12 26 35
0 27 -4 29 -61 41 -47 10 -69 21 -95 48 -42 43 -64 86 -64 123 0 25 9 32 88
70 48 23 89 45 92 49 3 4 21 15 40 25 35 18 200 178 200 195 0 5 6 15 13 22
36 38 117 236 117 287 0 11 5 23 10 26 6 4 10 68 10 160 0 92 -4 156 -10 160
-5 3 -10 18 -10 33 0 28 -21 96 -33 108 -4 4 -7 13 -7 21 0 21 -41 103 -81
163 -52 77 -149 172 -216 212 -32 18 -73 42 -93 54 -76 44 -149 68 -280 89
-95 16 -126 16 -220 3z"/>
<path d="M1536 1951 c-18 -20 -18 -22 11 -83 16 -35 36 -83 43 -108 7 -25 19
-64 26 -88 8 -23 14 -84 14 -134 0 -101 -26 -207 -81 -327 -33 -70 -27 -95 20
-89 45 5 91 100 130 271 14 61 14 233 0 294 -34 149 -92 273 -131 281 -8 1
-22 -6 -32 -17z"/>
<path d="M475 1818 c-59 -19 -81 -33 -126 -81 -67 -70 -88 -161 -55 -238 22
-51 111 -139 141 -139 7 0 17 -4 20 -10 3 -5 37 -10 75 -10 38 0 72 5 75 10 3
6 15 10 26 10 10 0 19 5 19 10 0 17 26 11 45 -10 37 -41 90 -12 65 35 -7 14
-17 25 -22 25 -13 0 -9 24 12 68 25 51 26 117 1 181 -28 74 -86 126 -167 149
-48 14 -68 14 -109 0z m129 -92 c23 -13 51 -42 64 -64 25 -46 29 -118 8 -147
-13 -19 -15 -18 -42 10 -51 53 -60 58 -83 43 -30 -18 -26 -37 15 -79 50 -51
42 -69 -31 -69 -74 0 -106 18 -144 81 -44 73 -16 177 61 223 54 32 100 33 152
2z"/>
<path d="M2007 1522 c-10 -10 -17 -25 -17 -33 0 -8 -4 -19 -8 -24 -5 -6 -17
-30 -26 -55 -10 -25 -23 -58 -31 -75 -25 -58 -45 -105 -61 -142 -9 -21 -20
-47 -26 -59 -17 -36 -6 -69 23 -72 27 -3 38 12 68 91 11 28 11 28 97 25 65 -2
89 -7 94 -18 4 -8 16 -33 27 -55 20 -42 44 -55 68 -35 17 14 19 42 6 68 -10
19 -30 67 -41 97 -9 25 -24 62 -40 100 -7 17 -17 40 -21 53 -5 12 -13 32 -18
45 -26 68 -51 106 -72 107 -3 0 -13 -8 -22 -18z m39 -169 c3 -10 10 -26 15
-35 5 -10 9 -27 9 -38 0 -17 -7 -20 -46 -20 -42 0 -45 2 -38 22 25 81 48 108
60 71z"/>
<path d="M1430 1021 c-12 -23 -4 -48 19 -60 25 -14 51 11 51 48 0 28 -3 31
-30 31 -19 0 -33 -7 -40 -19z"/>
</g>
</svg>
